<svg xmlns="http://www.w3.org/2000/svg" width="87" height="92.876" viewBox="0 0 87 92.876"><defs><style>.a{fill:#4f942e;}</style></defs><g transform="translate(43.5 46.438)"><g transform="translate(-43.5 -46.438)"><path class="a" d="M84.9,29.446a6.841,6.841,0,0,0-10.109,0l-8.811,9.414V15.432a7.846,7.846,0,0,0-2.094-5.394l-7.31-7.8A6.88,6.88,0,0,0,51.528,0H7.147A7.408,7.408,0,0,0,0,7.629V85.247a7.408,7.408,0,0,0,7.147,7.629H58.838a7.408,7.408,0,0,0,7.147-7.629v-24.8L84.9,40.235a7.992,7.992,0,0,0,0-10.79ZM50.478,4.223H51.2a3.156,3.156,0,0,1,2.584,1l7.31,7.8a3.716,3.716,0,0,1,.936,2.768v.761H50.478ZM62.029,85.247a3.308,3.308,0,0,1-3.191,3.406H7.147a3.308,3.308,0,0,1-3.191-3.406V7.629A3.308,3.308,0,0,1,7.147,4.223H46.522V18.665A2.05,2.05,0,0,0,48.5,20.776H62.029V43.087l-.178.19c-6.11,6.528-7.488,7.938-7.668,8.1l.042.045-3.653,3.9a2.137,2.137,0,0,0-.477.825L46.439,67.854a2.2,2.2,0,0,0,.478,2.161,1.883,1.883,0,0,0,2.024.51l10.966-3.9a1.971,1.971,0,0,0,.773-.51l1.349-1.443ZM55.626,55.9l4.513,4.818-1.926,2.057-6.769,2.409L53.7,57.957Zm7.309,1.832-4.512-4.818L71.7,38.725l4.513,4.817ZM82.107,37.25l-3.093,3.305L74.5,35.738l3.094-3.305a3.052,3.052,0,0,1,4.513,0A3.576,3.576,0,0,1,82.107,37.25ZM10.338,29.7a2.05,2.05,0,0,1,1.978-2.111H48.5a2.116,2.116,0,0,1,0,4.223H12.316A2.05,2.05,0,0,1,10.338,29.7Zm0,11.036a2.05,2.05,0,0,1,1.978-2.111H38.162a2.116,2.116,0,0,1,0,4.222H12.316A2.05,2.05,0,0,1,10.338,40.736Zm0,11.036a2.05,2.05,0,0,1,1.978-2.111H38.162a2.116,2.116,0,0,1,0,4.223H12.316A2.051,2.051,0,0,1,10.338,51.772ZM38.162,64.919H12.316a2.116,2.116,0,0,1,0-4.223H38.162a2.116,2.116,0,0,1,0,4.223Zm12.316,14.81A2.051,2.051,0,0,1,48.5,81.841H32.992a2.116,2.116,0,0,1,0-4.223H48.5A2.051,2.051,0,0,1,50.478,79.729Z" transform="translate(0 0)"/></g></g></svg>