<svg xmlns="http://www.w3.org/2000/svg" width="157.203" height="157.203" viewBox="0 0 157.203 157.203"><defs><style>.a{fill:#fff;}.b{fill:#55923c;}</style></defs><g transform="translate(78.602 78.602)"><g transform="translate(-78.602 -78.602)"><circle class="a" cx="78.5" cy="78.5" r="78.5"/><path class="b" d="M86.674,122.885c-2.8,4.147-4.448,8.175-5.267,15.162-.282,1.6-5.188,2.626-4.779.2,8.133-60.777,62.892-36.187,75.507-50.763-15.288,8.587-55.063-8.778-71.744,22.042C74.679,87.533,101.751,73.546,119.4,75.9c8.7,1.164,25.144,4.131,37.8,2.916,0-.073,0-.146,0-.218A78.6,78.6,0,0,0,22.867,23.181c8.242,1.646,15.833,2.858,21.276,3.878,25.71,4.825,55.927,36.662,37.852,64.725-8.03-36.316-46.119-43.149-71.128-53.073q-.926,1.568-1.779,3.181c29.054,15.4,81.124,23.847,65.4,95.99-.544,3.579-6.918-.119-6.571-2.48,2.06-10.122,2.285-20.673.287-27.749-25.893,5.18-50.355-11.3-67.867-36.324C.118,73.724,0,76.149,0,78.6A78.612,78.612,0,0,0,154.713,98.3C135.815,120.642,107.86,134.9,86.674,122.885Z" transform="translate(0)"/></g></g></svg>