<svg xmlns="http://www.w3.org/2000/svg" width="28" height="27" viewBox="0 0 28 27"><defs><style>.a{fill:#fff;}.b{fill:#21646f;}</style></defs><g transform="translate(0.39)"><ellipse class="a" cx="14" cy="13.5" rx="14" ry="13.5" transform="translate(-0.39)"/><path class="b" d="M14.235,3.193c.01.131.01.263.01.394a8.707,8.707,0,0,1-8.927,8.62A9.1,9.1,0,0,1,.5,10.847a6.7,6.7,0,0,0,.758.038,6.427,6.427,0,0,0,3.9-1.294,3.131,3.131,0,0,1-2.933-2.1,4.094,4.094,0,0,0,.593.047,3.43,3.43,0,0,0,.826-.1A3.059,3.059,0,0,1,1.122,4.46V4.422a3.245,3.245,0,0,0,1.418.385,3,3,0,0,1-1.4-2.523A2.929,2.929,0,0,1,1.568.755a9.026,9.026,0,0,0,6.469,3.17,3.307,3.307,0,0,1-.078-.694A3.084,3.084,0,0,1,11.1.2a3.183,3.183,0,0,1,2.292.957A6.313,6.313,0,0,0,15.381.426,3.044,3.044,0,0,1,14,2.1a6.466,6.466,0,0,0,1.807-.469A6.622,6.622,0,0,1,14.235,3.193Z" transform="translate(5.5 6.799)"/></g></svg>