<svg xmlns="http://www.w3.org/2000/svg" width="209.5" height="91.577" viewBox="0 0 209.5 91.577"><defs><style>.a{fill:#449a45;}.b{opacity:0.99;}.c{fill:#fff;}</style></defs><g transform="translate(104.75 45.788)"><g transform="translate(-104.75 -45.788)"><g transform="translate(139.802)"><path class="a" d="M178.327,24.976C183.42,17.07,174.906,8.1,167.662,6.739c-4.94-.925-16.149-2.41-19.584-6.739,1.624,15.245,13.353,32.051,26.363,29.448a18.044,18.044,0,0,1-.081,7.819c-.1.666,1.7,1.707,1.852.7,5.523-25.342-18.645-22.789-22.92-30.914C158.189,12.408,175.391,11.7,178.327,24.976Z" transform="translate(-148.078)"/></g><g transform="translate(168.532 20.317)"><path class="a" d="M179.576,31.179c-1.61-6.2,6.019-10.139,10.991-9.474,3.391.453,10.954,1.881,14.1-.185-4.3,9.51-15.461,17.878-23.319,13.422a8.718,8.718,0,0,0-1.484,4.272c-.079.45-1.462.74-1.346.058,2.291-17.125,17.721-10.2,21.276-14.3C195.483,27.388,184.276,22.5,179.576,31.179Z" transform="translate(-178.509 -21.52)"/></g><g class="b" transform="translate(0 33.159)"><path class="c" d="M9.109,47.857a11.185,11.185,0,0,1,6.481-2.039c5.983,0,9.654,4.261,9.654,11.1,0,7.977-4.759,13.188-12.1,13.188a64.41,64.41,0,0,1-9.064-.816V41.422c0-1.995-.952-2.629-4.079-2.675l.272-2.492,8.837-1.133Zm0,18.265a14.768,14.768,0,0,0,3.49.408c4.622,0,7.251-3.263,7.251-8.928,0-5.258-1.857-8.112-5.257-8.112a8.3,8.3,0,0,0-5.484,2.175Z" transform="translate(0 -35.122)"/><path class="c" d="M47.589,51.3a19.557,19.557,0,0,0-2.946-.273,7.749,7.749,0,0,0-5.484,2.085V64.668c0,1.949.952,2.719,3.445,2.9L42.422,70.2c-2.946-.227-4.215-.272-5.529-.272-1.269,0-2.628.045-5.393.272l-.272-2.674c2.085-.317,2.9-1.088,2.9-2.855V52.657c0-2.039-.952-2.674-4.033-2.719l.317-2.492L38.3,46.4l.634,3.444c2.311-2.447,4.306-3.4,7.206-3.4a9.3,9.3,0,0,1,2.946.453Z" transform="translate(-1.682 -35.752)"/><path class="c" d="M75.009,58.778c0,7.161-4.8,11.965-11.92,11.965s-11.873-4.849-11.873-12.1c0-7.205,4.94-12.191,12.1-12.191C70.114,46.451,75.009,51.617,75.009,58.778ZM56.7,58.733c0,2.81.5,4.713,1.587,6.073a5.618,5.618,0,0,0,4.985,2.266c4.215,0,6.255-2.674,6.255-8.339,0-5.71-2.13-8.61-6.3-8.61C58.784,50.123,56.7,52.887,56.7,58.733Z" transform="translate(-2.862 -35.755)"/><path class="c" d="M81.057,49.623a15.581,15.581,0,0,1,9.472-3.172c2.9,0,5.438.906,6.8,2.4a9.668,9.668,0,0,1,1.857,6.3v9.7c0,1.9.589,2.447,2.947,2.719l-.318,2.628a23.127,23.127,0,0,0-3.081-.227A24.144,24.144,0,0,0,95.7,70.2H95.47l-.589-2.356c-2.72,2.085-4.85,2.9-7.615,2.9-4.441,0-7.251-2.4-7.251-6.164,0-2.718,1.45-4.849,4.35-6.3,1.95-1,5.122-1.813,9.654-2.538a7.939,7.939,0,0,0-.635-3.988c-.5-1-1.858-1.631-3.671-1.631a14.979,14.979,0,0,0-6.934,2.085Zm13.007,9.291c-6.844,1.36-8.838,2.492-8.838,5.031,0,1.9,1.315,2.991,3.489,2.991a8.476,8.476,0,0,0,5.348-2.13Z" transform="translate(-4.472 -35.755)"/><path class="c" d="M129.051,64.037c0,1.994,1,2.855,3.445,2.9l-.182,2.628a29.879,29.879,0,0,0-3.715-.227,29.418,29.418,0,0,0-3.717.227l-.363-2.492a11.185,11.185,0,0,1-7.794,3.036c-6.028,0-9.926-4.577-9.926-11.738,0-7.524,4.487-12.554,11.24-12.554a10.8,10.8,0,0,1,5.891,1.631V41.059c0-1.767-.906-2.311-3.987-2.356l.407-2.538,8.7-1.042Zm-5.122-12.78a7.778,7.778,0,0,0-5.076-1.678c-4.26,0-6.572,3.082-6.572,8.657,0,4.941,2.176,7.931,5.847,7.931a8.5,8.5,0,0,0,5.8-2.447Z" transform="translate(-5.969 -35.122)"/><path class="c" d="M144.613,64.037c0,1.994.817,2.674,3.445,2.9l-.182,2.628c-3.127-.227-4.486-.272-5.846-.272-1.45,0-2.81.045-5.619.272l-.272-2.628c2.537-.227,3.444-.952,3.444-2.9V41.422c0-1.995-.907-2.629-4.033-2.675l.272-2.492,8.792-1.133Z" transform="translate(-7.576 -35.122)"/><path class="c" d="M172.408,68.115a15.719,15.719,0,0,1-8.746,2.628c-7.206,0-11.647-4.577-11.647-12.1,0-7.433,4.3-12.191,11.1-12.191,6.391,0,9.971,3.988,9.971,11.1a17.076,17.076,0,0,1-.136,2.039H157.5c.182,5.212,2.131,7.388,6.617,7.388a12.817,12.817,0,0,0,6.934-1.994Zm-4.124-11.829c-.136-4.215-1.859-6.255-5.3-6.255s-5.347,2.176-5.484,6.255Z" transform="translate(-8.496 -35.755)"/><path class="c" d="M178.4,49.623a15.581,15.581,0,0,1,9.472-3.172c2.9,0,5.438.906,6.8,2.4a9.668,9.668,0,0,1,1.858,6.3v9.7c0,1.9.589,2.447,2.947,2.719l-.318,2.628a23.137,23.137,0,0,0-3.081-.227,24.144,24.144,0,0,0-3.037.227h-.226l-.589-2.356c-2.72,2.085-4.85,2.9-7.615,2.9-4.441,0-7.252-2.4-7.252-6.164,0-2.718,1.451-4.849,4.351-6.3,1.949-1,5.122-1.813,9.654-2.538a7.941,7.941,0,0,0-.634-3.988c-.5-1-1.858-1.631-3.671-1.631a14.979,14.979,0,0,0-6.935,2.085Zm13.007,9.291c-6.844,1.36-8.838,2.492-8.838,5.031,0,1.9,1.315,2.991,3.489,2.991a8.476,8.476,0,0,0,5.348-2.13Z" transform="translate(-9.912 -35.755)"/><path class="c" d="M219.908,39.608a16.764,16.764,0,0,0-4.714-.816,2.5,2.5,0,0,0-1.9.681c-.589.589-.771,1.36-.771,3.4v3.535h5.212v3.535h-5.212v14.1c0,1.994.862,2.719,3.445,2.9l-.18,2.628c-3.128-.227-4.533-.317-5.8-.317-1.315,0-2.538.091-5.666.317l-.272-2.628c2.356-.045,3.444-.952,3.444-2.9v-14.1h-3.308V46.407h3.308V42.736a9.58,9.58,0,0,1,.906-4.85c1.043-1.813,3.128-2.764,6.119-2.764a15.447,15.447,0,0,1,6.39,1.36Z" transform="translate(-11.404 -35.122)"/></g><g transform="translate(83.774 78.689)"><path class="a" d="M98.773,94.933a7.47,7.47,0,0,1-4.124,1.3c-3.584,0-5.916-2.5-5.916-6.383,0-4.148,2.16-6.5,5.965-6.5a9.1,9.1,0,0,1,3.708.761v2.97H97.128c-.245-1.669-.712-2.086-2.38-2.086-2.333,0-3.487,1.6-3.487,4.836,0,3.142,1.252,4.763,3.657,4.763a6.937,6.937,0,0,0,3.364-.81Z" transform="translate(-88.733 -83.347)"/><path class="a" d="M113.675,89.926a6.309,6.309,0,1,1-12.617,0c0-3.9,2.6-6.58,6.357-6.58C111.072,83.347,113.675,86.1,113.675,89.926Zm-10.09.024c0,3.143,1.227,4.64,3.78,4.64s3.78-1.5,3.78-4.664c0-3.217-1.3-4.935-3.707-4.935C104.862,84.992,103.585,86.636,103.585,89.95Z" transform="translate(-89.422 -83.347)"/><path class="a" d="M120.71,85.507c1.792-1.522,3.24-2.16,4.884-2.16a2.746,2.746,0,0,1,3.069,2.332c1.743-1.645,3.167-2.332,4.885-2.332,2.357,0,3.584,1.326,3.584,3.854v6.039c0,1.178.492,1.6,2.037,1.646l-.122,1.08a26.735,26.735,0,0,0-2.775-.173,23.188,23.188,0,0,0-2.7.173l-.1-1.129c1.031-.2,1.326-.54,1.326-1.6v-5.67c0-1.645-.637-2.43-1.988-2.43a5.823,5.823,0,0,0-3.953,1.988v6.112c0,1.2.492,1.6,2.038,1.646l-.123,1.08c-1.35-.123-2.086-.173-2.749-.173-.589,0-.589,0-2.749.173l-.075-1.129c1.032-.172,1.326-.54,1.326-1.6v-5.67c0-1.718-.491-2.43-1.669-2.43-1.228,0-2.479.614-4.05,1.988v6.112c0,1.276.417,1.621,2.013,1.646l-.123,1.08c-1.645-.123-2.407-.173-3.045-.173-.54,0-1.349.05-3.117.173l-.123-1.08c1.521-.025,2.061-.442,2.061-1.646v-6.8c0-1.375-.367-1.645-2.208-1.669l.122-.908,3.953-.515Z" transform="translate(-90.272 -83.347)"/><path class="a" d="M146.242,85.507a7.313,7.313,0,0,1,4.885-2.16,2.746,2.746,0,0,1,3.068,2.332c1.743-1.645,3.167-2.332,4.886-2.332,2.356,0,3.583,1.326,3.583,3.854v6.039c0,1.178.492,1.6,2.038,1.646l-.123,1.08a26.736,26.736,0,0,0-2.775-.173,23.166,23.166,0,0,0-2.7.173l-.1-1.129c1.031-.2,1.326-.54,1.326-1.6v-5.67c0-1.645-.639-2.43-1.989-2.43a5.814,5.814,0,0,0-3.951,1.988v6.112c0,1.2.49,1.6,2.036,1.646l-.123,1.08c-1.35-.123-2.086-.173-2.749-.173-.589,0-.589,0-2.749.173l-.074-1.129c1.031-.172,1.326-.54,1.326-1.6v-5.67c0-1.718-.491-2.43-1.669-2.43-1.227,0-2.48.614-4.051,1.988v6.112c0,1.276.418,1.621,2.014,1.646l-.123,1.08c-1.645-.123-2.406-.173-3.044-.173-.541,0-1.35.05-3.117.173l-.123-1.08c1.521-.025,2.062-.442,2.062-1.646v-6.8c0-1.375-.368-1.645-2.209-1.669l.123-.908,3.952-.515Z" transform="translate(-91.699 -83.347)"/><path class="a" d="M178.278,94.909a7.7,7.7,0,0,1-4.295,1.326c-3.781,0-6.211-2.48-6.211-6.359,0-4.026,2.16-6.529,5.67-6.529a4.7,4.7,0,0,1,4.468,2.455,7.973,7.973,0,0,1,.638,3.486c0,.27,0,.491-.025.884H170.3c.1,3.118,1.154,4.321,3.829,4.321a7.78,7.78,0,0,0,3.633-.81Zm-1.89-6.309c-.048-2.577-.907-3.584-3.019-3.584-2.086,0-3.019,1.1-3.068,3.584Z" transform="translate(-93.15 -83.347)"/><path class="a" d="M190.441,85.63a12.506,12.506,0,0,0-1.349-.1,4.887,4.887,0,0,0-3.438,1.326v6.382c0,1.178.566,1.621,2.037,1.646l-.123,1.08c-1.349-.123-2.16-.173-2.773-.173-.59,0-1.425.05-2.7.173l-.1-1.129c1.056-.222,1.326-.565,1.326-1.6v-6.8c0-1.375-.367-1.645-2.16-1.669l.123-.908,3.854-.515.515,2.16a5.043,5.043,0,0,1,4.174-2.16,4.178,4.178,0,0,1,1.3.172Z" transform="translate(-93.899 -83.347)"/><path class="a" d="M202.539,94.933a7.475,7.475,0,0,1-4.124,1.3c-3.584,0-5.916-2.5-5.916-6.383,0-4.148,2.159-6.5,5.964-6.5a9.094,9.094,0,0,1,3.708.761v2.97h-1.276c-.245-1.669-.712-2.086-2.381-2.086-2.333,0-3.486,1.6-3.486,4.836,0,3.142,1.252,4.763,3.657,4.763a6.934,6.934,0,0,0,3.363-.81Z" transform="translate(-94.532 -83.347)"/><path class="a" d="M215.38,94.909a7.7,7.7,0,0,1-4.3,1.326c-3.781,0-6.21-2.48-6.21-6.359,0-4.026,2.159-6.529,5.67-6.529a4.7,4.7,0,0,1,4.468,2.455,7.959,7.959,0,0,1,.638,3.486c0,.27,0,.491-.025.884H207.4c.1,3.118,1.153,4.321,3.828,4.321a7.787,7.787,0,0,0,3.634-.81ZM213.49,88.6c-.049-2.577-.908-3.584-3.019-3.584-2.086,0-3.019,1.1-3.068,3.584Z" transform="translate(-95.224 -83.347)"/></g></g></g></svg>